<svg xmlns="http://www.w3.org/2000/svg" version="1.1" xmlns:xlink="http://www.w3.org/1999/xlink" xmlns:svgjs="http://svgjs.dev/svgjs" width="1000" height="623" viewBox="0 0 1000 623"><g transform="matrix(1,0,0,1,-0.6060606060606233,0.25222672064785456)"><svg viewBox="0 0 396 247" data-background-color="#97978d" preserveAspectRatio="xMidYMid meet" height="623" width="1000" xmlns="http://www.w3.org/2000/svg" xmlns:xlink="http://www.w3.org/1999/xlink"><g id="tight-bounds" transform="matrix(1,0,0,1,0.2400000000000091,-0.09999999999999432)"><svg viewBox="0 0 395.52 247.2" height="247.2" width="395.52"><g><svg></svg></g><g><svg viewBox="0 0 395.52 247.2" height="247.2" width="395.52"><g transform="matrix(1,0,0,1,75.54432000000001,79.4631064089522)"><svg viewBox="0 0 244.43135999999996 88.2737871820956" height="88.2737871820956" width="244.43135999999996"><g><svg viewBox="0 0 244.43135999999996 88.2737871820956" height="88.2737871820956" width="244.43135999999996"><g><svg viewBox="0 0 244.43135999999996 88.2737871820956" height="88.2737871820956" width="244.43135999999996"><g><svg viewBox="0 0 244.43135999999996 88.2737871820956" height="88.2737871820956" width="244.43135999999996"><g id="textblocktransform"><svg viewBox="0 0 244.43135999999996 88.2737871820956" height="88.2737871820956" width="244.43135999999996" id="textblock"><g><svg viewBox="0 0 244.43135999999996 88.2737871820956" height="88.2737871820956" width="244.43135999999996"><g transform="matrix(1,0,0,1,0,0)"><svg width="244.43135999999996" viewBox="3.8499999046325684 -34.900001525878906 98.29000091552734 35.5" height="88.2737871820956" data-palette-color="#c8c8c8"><path d="M27.8 0L27.8-21.5 28.15-27.45 27.55-27.45 25.15-21.6 18.35-7.4 11.6-21.6 9.2-27.35 8.6-27.35 8.95-21.5 8.95 0 3.85 0 3.85-34.9 10.1-34.9 15.75-22.7 18.2-15.8 18.65-15.8 21.1-22.7 26.7-34.9 32.9-34.9 32.9 0 27.8 0ZM60.25 0L56.95 0Q55.05 0 54-1.05 52.95-2.1 52.95-4.35L52.95-4.35 52.35-4.35Q51.8-2 50.07-0.7 48.35 0.6 45.85 0.6L45.85 0.6Q42.15 0.6 40.32-1.38 38.5-3.35 38.5-6.95L38.5-6.95Q38.5-10.85 41-12.9 43.5-14.95 48.35-14.95L48.35-14.95 52.65-14.95 52.65-17.45Q52.65-19.95 51.55-21.13 50.45-22.3 48.05-22.3L48.05-22.3Q46.2-22.3 44.87-21.5 43.55-20.7 42.45-18.8L42.45-18.8 39.4-21.6Q40.7-23.8 42.92-25.2 45.15-26.6 48.4-26.6L48.4-26.6Q53.1-26.6 55.45-24.33 57.8-22.05 57.8-17.65L57.8-17.65 57.8-4.25 60.25-4.25 60.25 0ZM47.55-3.4L47.55-3.4Q48.65-3.4 49.57-3.75 50.5-4.1 51.17-4.7 51.85-5.3 52.25-6.13 52.65-6.95 52.65-7.9L52.65-7.9 52.65-11.5 48.6-11.5Q43.75-11.5 43.75-8L43.75-8 43.75-6.8Q43.75-5.05 44.77-4.23 45.8-3.4 47.55-3.4ZM70.25 0L65.09 0 65.09-26 70.25-26 70.25-20.85 70.84-20.85Q71.4-23.35 72.92-24.68 74.45-26 76.8-26L76.8-26 78.09-26 78.09-20.75 75.9-20.75Q73.15-20.75 71.7-19.7 70.25-18.65 70.25-16.35L70.25-16.35 70.25 0ZM102.14 0L98.84 0Q96.94 0 95.89-1.05 94.84-2.1 94.84-4.35L94.84-4.35 94.24-4.35Q93.69-2 91.97-0.7 90.24 0.6 87.74 0.6L87.74 0.6Q84.04 0.6 82.22-1.38 80.39-3.35 80.39-6.95L80.39-6.95Q80.39-10.85 82.89-12.9 85.39-14.95 90.24-14.95L90.24-14.95 94.54-14.95 94.54-17.45Q94.54-19.95 93.44-21.13 92.34-22.3 89.94-22.3L89.94-22.3Q88.09-22.3 86.77-21.5 85.44-20.7 84.34-18.8L84.34-18.8 81.29-21.6Q82.59-23.8 84.82-25.2 87.04-26.6 90.29-26.6L90.29-26.6Q94.99-26.6 97.34-24.33 99.69-22.05 99.69-17.65L99.69-17.65 99.69-4.25 102.14-4.25 102.14 0ZM89.44-3.4L89.44-3.4Q90.54-3.4 91.47-3.75 92.39-4.1 93.07-4.7 93.74-5.3 94.14-6.13 94.54-6.95 94.54-7.9L94.54-7.9 94.54-11.5 90.49-11.5Q85.64-11.5 85.64-8L85.64-8 85.64-6.8Q85.64-5.05 86.67-4.23 87.69-3.4 89.44-3.4Z" opacity="1" transform="matrix(1,0,0,1,0,0)" fill="#c8c8c8" class="undefined-text-0" data-fill-palette-color="primary" id="text-0"></path></svg></g></svg></g></svg></g></svg></g></svg></g></svg></g></svg></g><g><path d="M245.816 0c68.262 0 123.6 55.338 123.6 123.6 0 68.262-55.338 123.6-123.6 123.6-48.679 0-90.786-28.142-110.939-69.043l4.456 0c19.833 38.631 60.071 65.063 106.483 65.063 66.064 0 119.62-53.556 119.619-119.62 0-66.064-53.556-119.62-119.619-119.62-46.411 0-86.65 26.432-106.483 65.063l-4.456 0c20.153-40.902 62.259-69.043 110.939-69.043z" fill="#c8c8c8" stroke="transparent" data-fill-palette-color="tertiary"></path></g></svg></g><defs></defs></svg><rect width="395.52" height="247.2" fill="none" stroke="none" visibility="hidden"></rect></g></svg></g></svg>